<?xml version="1.0" encoding="UTF-8"?>
<svg xmlns="http://www.w3.org/2000/svg" viewBox="0 0 64 64" width="64" height="64">
  <g class="solids">
    <g><path d="M8 18L8.2 16.4L8.8 15L9.8 13.8L11 12.8L12.4 12.2L14 12L20 12L21.6 12.2L23 12.8L24.2 13.8L25.2 15L27 17.4L27.6 18.8L27.8 20.4L27.8 44.4L27.6 46L27 47.4L26 48.6L24.8 49.6L23.4 50.2L21.8 50.4L15.8 50.4L14.2 50.2L12.8 49.6L11.6 48.6L10.6 47.4L8.8 45L8.2 43.6L8 42Z" fill="none" stroke="#29313D" stroke-width="1.8" stroke-linejoin="round"/><rect x="8" y="12" width="18" height="36" rx="6" fill="none" stroke="#29313D" stroke-width="1.8" stroke-linejoin="round"/></g>
    <g><path d="M38.2 33.6L39.6 35.5A6 6 0 0 0 49.2 28.3L47.8 26.4A6 6 0 0 0 38.2 33.6Z" fill="none" stroke="#482289" stroke-width="1.8" stroke-linejoin="round"/><circle cx="43" cy="30" r="6" fill="none" stroke="#482289" stroke-width="1.8" stroke-linejoin="round"/></g>
  </g>
  <g class="marks">
    <path d="M30 30h4" fill="none" stroke="#482289" stroke-width="2.2" stroke-linecap="round" stroke-linejoin="round"/>
  </g>
</svg>
